<svg width="618" height="62" viewBox="0 0 618 62" fill="none" xmlns="http://www.w3.org/2000/svg">
<path d="M183.209 60.7871L194.048 28.2272L204.424 60.7871H222.616L203.372 0.400387H185.044L164.941 60.7871H183.209Z" fill="black"/>
<path d="M18.2693 60.9072L29.108 28.3473L39.484 60.9072H57.676L38.4307 0.50723H20.104L0 60.9072H18.2693Z" fill="black"/>
<path d="M485.521 28.4806H507.008C509.971 28.4806 512.383 26.0672 512.383 23.1072C512.383 20.1472 509.971 17.7337 507.008 17.7337H481.835L476.881 0.400387H507.008C519.529 0.400387 529.716 10.5872 529.716 23.1072C529.716 30.3072 526.352 36.7205 521.116 40.8939L537.075 60.7871H514.857L503.3 46.3871H491.496L485.521 28.4806" fill="black"/>
<path d="M53.0627 28.4806H74.5467C77.5121 28.4806 79.9227 26.0672 79.9227 23.1072C79.9227 20.1472 77.5121 17.7337 74.5467 17.7337H49.3747L44.4214 0.400387H74.5467C87.0694 0.400387 97.2561 10.5872 97.2561 23.1072C97.2561 30.3072 93.8934 36.7205 88.6561 40.8939L104.616 60.7871H82.3974L70.8401 46.3871H59.0361L53.0627 28.4806" fill="black"/>
<path d="M157.531 60.7871L163.172 43.7738V0.400387H143.973L134.425 14.6538L125.404 0.400387H106.385V60.7871H123.719V30.1337L134.012 46.4004L145.839 28.7473V60.7871H157.531" fill="black"/>
<path d="M261.973 0.400387L252.425 14.6538L243.404 0.400387H224.385V45.9337L229.121 60.7871H241.719V30.1337L252.012 46.4004L263.839 28.7473V60.7871H281.172V0.400387H261.973" fill="black"/>
<path d="M333.184 15.6533H288.565V0.399936H333.184V15.6533Z" fill="black"/>
<path d="M333.184 60.7871H288.565V45.5337H333.184V60.7871Z" fill="black"/>
<path d="M333.184 38.9868H288.565V23.7334H333.184V38.9868Z" fill="black"/>
<path d="M450.94 60.7871L461.78 28.2272L472.155 60.7871H490.347L471.101 0.400387H452.776L432.672 60.7871H450.94" fill="black"/>
<path d="M445.697 0.400387H396.475V17.7337H410.476V60.7871H427.809V17.7337H439.697L445.697 0.400387Z" fill="black"/>
<path d="M556.698 60.7871H539.364V0.400387H556.698V60.7871Z" fill="black"/>
<path d="M305.899 60.7871H288.565V27.6004H305.899V60.7871Z" fill="black"/>
<path d="M587.299 43.8669C579.983 43.8669 574.031 37.9202 574.031 30.6002C574.031 23.2802 579.983 17.3335 587.299 17.3335C594.616 17.3335 600.569 23.2802 600.569 30.6002C600.569 37.9202 594.616 43.8669 587.299 43.8669ZM587.299 0.000192121C576.815 0.000192121 567.548 5.29368 562.031 13.3603V47.8403C567.548 55.8936 576.815 61.2002 587.299 61.2002C604.175 61.2002 617.903 47.4669 617.903 30.6002C617.903 13.7202 604.175 0.000192121 587.299 0.000192121Z" fill="black"/>
<path d="M359.309 36.8272L371.762 60.7871H390.829V0.400387H371.433V24.3738L358.98 0.400387H339.913V60.7871H359.309V36.8272Z" fill="black"/>
</svg>
